<?xml version="1.0" encoding="UTF-8" standalone="no"?>
<!DOCTYPE svg PUBLIC "-//W3C//DTD SVG 1.1//EN"
 "http://www.w3.org/Graphics/SVG/1.1/DTD/svg11.dtd">
<!-- Generated by graphviz version 9.0.0 (20230911.1827)
 -->
<!-- Title: LinkArray Pages: 1 -->
<svg width="196pt" height="172pt"
 viewBox="0.00 0.00 195.77 171.94" xmlns="http://www.w3.org/2000/svg" xmlns:xlink="http://www.w3.org/1999/xlink">
<g id="graph0" class="graph" transform="scale(1 1) rotate(0) translate(4 167.94)">
<title>LinkArray</title>
<polygon fill="white" stroke="none" points="-4,4 -4,-167.94 191.77,-167.94 191.77,4 -4,4"/>
<!-- 1077 -->
<g id="node1" class="node">
<title>1077</title>
<polygon fill="red" stroke="red" points="54,-80 0,-80 0,-44 54,-44 54,-80"/>
<text text-anchor="middle" x="27" y="-56.95" font-family="Times,serif" font-size="14.00">Top</text>
</g>
<!-- 1095 -->
<g id="node2" class="node">
<title>1095</title>
<polygon fill="yellow" stroke="yellow" points="187.77,-79.42 133.77,-79.42 133.77,-43.42 187.77,-43.42 187.77,-79.42"/>
<text text-anchor="middle" x="160.77" y="-56.37" font-family="Times,serif" font-size="14.00">Right</text>
</g>
<!-- 1077&#45;&gt;1095 -->
<g id="edge4" class="edge">
<title>1077&#45;&gt;1095</title>
<path fill="none" stroke="black" d="M54.39,-61.88C73.87,-61.8 100.31,-61.68 121.95,-61.59"/>
<polygon fill="black" stroke="black" points="121.91,-65.09 131.9,-61.54 121.88,-58.09 121.91,-65.09"/>
</g>
<!-- 1119 -->
<g id="node3" class="node">
<title>1119</title>
<ellipse fill="green" stroke="green" cx="85.96" cy="-18" rx="39.07" ry="18"/>
<text text-anchor="middle" x="85.96" y="-12.95" font-family="Times,serif" font-size="14.00">Bottom</text>
</g>
<!-- 1077&#45;&gt;1119 -->
<g id="edge3" class="edge">
<title>1077&#45;&gt;1119</title>
<path fill="none" stroke="black" d="M51.66,-43.6C53.23,-42.43 54.81,-41.25 56.39,-40.07"/>
<polygon fill="black" stroke="black" points="58.19,-43.1 64.11,-34.31 54,-37.49 58.19,-43.1"/>
</g>
<!-- 1125 -->
<g id="node4" class="node">
<title>1125</title>
<polygon fill="#ffffff" stroke="#ffffff" points="71.55,-163.94 17.55,-163.94 17.55,-127.94 71.55,-127.94 71.55,-163.94"/>
<text text-anchor="middle" x="44.55" y="-140.89" font-family="Times,serif" font-size="14.00">Start</text>
</g>
<!-- 1077&#45;&gt;1125 -->
<g id="edge2" class="edge">
<title>1077&#45;&gt;1125</title>
<path fill="none" stroke="black" d="M30.81,-80.22C33.02,-90.81 35.87,-104.42 38.4,-116.51"/>
<polygon fill="black" stroke="black" points="34.91,-116.92 40.38,-126 41.76,-115.49 34.91,-116.92"/>
</g>
<!-- 1119&#45;&gt;1095 -->
<g id="edge5" class="edge">
<title>1119&#45;&gt;1095</title>
<path fill="none" stroke="black" d="M110.46,-32.22C114.69,-34.68 119.18,-37.28 123.67,-39.88"/>
<polygon fill="black" stroke="black" points="121.66,-42.76 132.06,-44.76 125.17,-36.71 121.66,-42.76"/>
</g>
<!-- 1125&#45;&gt;1119 -->
<g id="edge1" class="edge">
<title>1125&#45;&gt;1119</title>
<path fill="none" stroke="black" d="M50.48,-127.61C57.32,-106.5 68.63,-71.54 76.65,-46.78"/>
<polygon fill="black" stroke="black" points="79.96,-47.92 79.71,-37.32 73.3,-45.76 79.96,-47.92"/>
</g>
</g>
</svg>
