<?xml version="1.0" encoding="UTF-8" standalone="no"?>
<!DOCTYPE svg PUBLIC "-//W3C//DTD SVG 1.1//EN"
 "http://www.w3.org/Graphics/SVG/1.1/DTD/svg11.dtd">
<!-- Generated by graphviz version 7.1.0 (20230121.1956)
 -->
<!-- Title: regexp Pages: 1 -->
<svg width="818pt" height="476pt"
 viewBox="0.00 0.00 817.80 476.00" xmlns="http://www.w3.org/2000/svg" xmlns:xlink="http://www.w3.org/1999/xlink">
<g id="graph0" class="graph" transform="scale(1 1) rotate(0) translate(4 472)">
<title>regexp</title>
<polygon fill="white" stroke="none" points="-4,4 -4,-472 813.8,-472 813.8,4 -4,4"/>
<!-- n0 -->
<g id="node1" class="node">
<title>n0</title>
<g id="a_node1"><a xlink:href="https://godoc.org/regexp" xlink:title="Package regexp implements regular expression search.">
<ellipse fill="none" stroke="black" cx="296" cy="-450" rx="37.89" ry="18"/>
<text text-anchor="middle" x="296" y="-446.3" font-family="Helvetica,Arial,sans-serif" font-size="14.00">regexp</text>
</a>
</g>
</g>
<!-- n1 -->
<g id="node2" class="node">
<title>n1</title>
<g id="a_node2"><a xlink:href="https://godoc.org/bytes" xlink:title="Package bytes implements functions for the manipulation of byte slices.">
<ellipse fill="none" stroke="black" cx="142" cy="-306" rx="31.7" ry="18"/>
<text text-anchor="middle" x="142" y="-302.3" font-family="Helvetica,Arial,sans-serif" font-size="14.00">bytes</text>
</a>
</g>
</g>
<!-- n0&#45;&gt;n1 -->
<g id="edge1" class="edge">
<title>n0&#45;&gt;n1</title>
<path fill="none" stroke="black" d="M264.41,-439.53C240.97,-431.18 209.49,-417.04 188,-396 170.63,-378.99 158.51,-354.02 151.09,-334.86"/>
<polygon fill="black" stroke="black" points="154.4,-333.69 147.69,-325.49 147.82,-336.09 154.4,-333.69"/>
</g>
<!-- n2 -->
<g id="node3" class="node">
<title>n2</title>
<g id="a_node3"><a xlink:href="https://godoc.org/io" xlink:title="Package io provides basic interfaces to I/O primitives.">
<ellipse fill="none" stroke="black" cx="71" cy="-234" rx="27" ry="18"/>
<text text-anchor="middle" x="71" y="-230.3" font-family="Helvetica,Arial,sans-serif" font-size="14.00">io</text>
</a>
</g>
</g>
<!-- n0&#45;&gt;n2 -->
<g id="edge2" class="edge">
<title>n0&#45;&gt;n2</title>
<path fill="none" stroke="black" d="M262.03,-441.38C232.47,-433.55 189.53,-419.18 158,-396 125.12,-371.83 120.47,-359.87 101,-324 90.53,-304.72 82.78,-281.13 77.78,-263.08"/>
<polygon fill="black" stroke="black" points="81.21,-262.36 75.28,-253.58 74.45,-264.14 81.21,-262.36"/>
</g>
<!-- n3 -->
<g id="node4" class="node">
<title>n3</title>
<g id="a_node4"><a xlink:href="https://godoc.org/regexp/syntax" xlink:title="Package syntax parses regular expressions into parse trees and compiles parse trees into programs.">
<ellipse fill="none" stroke="black" cx="296" cy="-378" rx="65.79" ry="18"/>
<text text-anchor="middle" x="296" y="-374.3" font-family="Helvetica,Arial,sans-serif" font-size="14.00">regexp/syntax</text>
</a>
</g>
</g>
<!-- n0&#45;&gt;n3 -->
<g id="edge3" class="edge">
<title>n0&#45;&gt;n3</title>
<path fill="none" stroke="black" d="M296,-431.7C296,-424.41 296,-415.73 296,-407.54"/>
<polygon fill="black" stroke="black" points="299.5,-407.62 296,-397.62 292.5,-407.62 299.5,-407.62"/>
</g>
<!-- n4 -->
<g id="node5" class="node">
<title>n4</title>
<g id="a_node5"><a xlink:href="https://godoc.org/sort" xlink:title="Package sort provides primitives for sorting slices and user&#45;defined collections.">
<ellipse fill="none" stroke="black" cx="27" cy="-306" rx="27" ry="18"/>
<text text-anchor="middle" x="27" y="-302.3" font-family="Helvetica,Arial,sans-serif" font-size="14.00">sort</text>
</a>
</g>
</g>
<!-- n0&#45;&gt;n4 -->
<g id="edge4" class="edge">
<title>n0&#45;&gt;n4</title>
<path fill="none" stroke="black" d="M257.68,-449.92C208.45,-449.1 122.82,-440.67 68,-396 49.26,-380.73 38.69,-354.99 33,-335.1"/>
<polygon fill="black" stroke="black" points="36.45,-334.47 30.56,-325.66 29.67,-336.22 36.45,-334.47"/>
</g>
<!-- n5 -->
<g id="node6" class="node">
<title>n5</title>
<g id="a_node6"><a xlink:href="https://godoc.org/strconv" xlink:title="Package strconv implements conversions to and from string representations of basic data types.">
<ellipse fill="none" stroke="black" cx="549" cy="-306" rx="38.99" ry="18"/>
<text text-anchor="middle" x="549" y="-302.3" font-family="Helvetica,Arial,sans-serif" font-size="14.00">strconv</text>
</a>
</g>
</g>
<!-- n0&#45;&gt;n5 -->
<g id="edge5" class="edge">
<title>n0&#45;&gt;n5</title>
<path fill="none" stroke="black" d="M332.72,-444.81C371.35,-438.99 432.58,-425.59 477,-396 501.08,-379.95 521.07,-353.37 533.82,-333.42"/>
<polygon fill="black" stroke="black" points="536.76,-335.33 539.02,-324.98 530.79,-331.66 536.76,-335.33"/>
</g>
<!-- n6 -->
<g id="node7" class="node">
<title>n6</title>
<g id="a_node7"><a xlink:href="https://godoc.org/strings" xlink:title="Package strings implements simple functions to manipulate UTF&#45;8 encoded strings.">
<ellipse fill="none" stroke="black" cx="304" cy="-306" rx="36.29" ry="18"/>
<text text-anchor="middle" x="304" y="-302.3" font-family="Helvetica,Arial,sans-serif" font-size="14.00">strings</text>
</a>
</g>
</g>
<!-- n0&#45;&gt;n6 -->
<g id="edge6" class="edge">
<title>n0&#45;&gt;n6</title>
<path fill="none" stroke="black" d="M323.79,-437.48C340.79,-428.81 361.1,-415.11 371,-396 378.36,-381.79 377.97,-374.4 371,-360 364.1,-345.74 351.3,-334.16 338.72,-325.5"/>
<polygon fill="black" stroke="black" points="340.83,-322.7 330.52,-320.26 337.07,-328.6 340.83,-322.7"/>
</g>
<!-- n7 -->
<g id="node8" class="node">
<title>n7</title>
<g id="a_node8"><a xlink:href="https://godoc.org/sync" xlink:title="Package sync provides basic synchronization primitives such as mutual exclusion locks.">
<ellipse fill="none" stroke="black" cx="399" cy="-162" rx="28.7" ry="18"/>
<text text-anchor="middle" x="399" y="-158.3" font-family="Helvetica,Arial,sans-serif" font-size="14.00">sync</text>
</a>
</g>
</g>
<!-- n0&#45;&gt;n7 -->
<g id="edge7" class="edge">
<title>n0&#45;&gt;n7</title>
<path fill="none" stroke="black" d="M332.74,-444.85C376.6,-438.8 451.26,-424.95 509,-396 584.5,-358.14 613.6,-334.2 633,-252 636.68,-236.43 642.99,-228.5 633,-216 626.85,-208.31 502.05,-183.05 437.29,-170.38"/>
<polygon fill="black" stroke="black" points="438.28,-167.01 427.79,-168.53 436.94,-173.88 438.28,-167.01"/>
</g>
<!-- n8 -->
<g id="node9" class="node">
<title>n8</title>
<g id="a_node9"><a xlink:href="https://godoc.org/unicode" xlink:title="Package unicode provides data and functions to test some properties of Unicode code points.">
<ellipse fill="none" stroke="black" cx="158" cy="-234" rx="41.69" ry="18"/>
<text text-anchor="middle" x="158" y="-230.3" font-family="Helvetica,Arial,sans-serif" font-size="14.00">unicode</text>
</a>
</g>
</g>
<!-- n0&#45;&gt;n8 -->
<g id="edge8" class="edge">
<title>n0&#45;&gt;n8</title>
<path fill="none" stroke="black" d="M270.63,-436.39C254.42,-427.18 234.07,-413.3 221,-396 190.33,-355.4 202.32,-335.07 183,-288 179.51,-279.49 175.36,-270.39 171.47,-262.16"/>
<polygon fill="black" stroke="black" points="174.71,-260.84 167.21,-253.35 168.41,-263.88 174.71,-260.84"/>
</g>
<!-- n9 -->
<g id="node10" class="node">
<title>n9</title>
<g id="a_node10"><a xlink:href="https://godoc.org/unicode/utf8" xlink:title="Package utf8 implements functions and constants to support text encoded in UTF&#45;8.">
<ellipse fill="none" stroke="black" cx="549" cy="-234" rx="58.49" ry="18"/>
<text text-anchor="middle" x="549" y="-230.3" font-family="Helvetica,Arial,sans-serif" font-size="14.00">unicode/utf8</text>
</a>
</g>
</g>
<!-- n0&#45;&gt;n9 -->
<g id="edge9" class="edge">
<title>n0&#45;&gt;n9</title>
<path fill="none" stroke="black" d="M321.42,-436.44C340.3,-426.59 366.26,-411.92 387,-396 416.09,-373.66 487.74,-299.52 525.25,-260.12"/>
<polygon fill="black" stroke="black" points="527.74,-262.58 532.09,-252.91 522.67,-257.75 527.74,-262.58"/>
</g>
<!-- n1&#45;&gt;n2 -->
<g id="edge11" class="edge">
<title>n1&#45;&gt;n2</title>
<path fill="none" stroke="black" d="M126.59,-289.81C116.94,-280.29 104.33,-267.86 93.56,-257.24"/>
<polygon fill="black" stroke="black" points="96.06,-254.8 86.49,-250.27 91.15,-259.78 96.06,-254.8"/>
</g>
<!-- n1&#45;&gt;n8 -->
<g id="edge12" class="edge">
<title>n1&#45;&gt;n8</title>
<path fill="none" stroke="black" d="M145.96,-287.7C147.64,-280.32 149.65,-271.52 151.54,-263.25"/>
<polygon fill="black" stroke="black" points="154.94,-264.11 153.75,-253.58 148.11,-262.55 154.94,-264.11"/>
</g>
<!-- n1&#45;&gt;n9 -->
<g id="edge13" class="edge">
<title>n1&#45;&gt;n9</title>
<path fill="none" stroke="black" d="M172.75,-300.55C244.62,-290.11 421.96,-263.97 481,-252 485.37,-251.11 489.88,-250.13 494.41,-249.1"/>
<polygon fill="black" stroke="black" points="495.2,-252.51 504.13,-246.81 493.59,-245.7 495.2,-252.51"/>
</g>
<!-- n10 -->
<g id="node11" class="node">
<title>n10</title>
<g id="a_node11"><a xlink:href="https://godoc.org/internal/bytealg" xlink:title="internal/bytealg">
<ellipse fill="none" stroke="black" cx="402" cy="-234" rx="70.39" ry="18"/>
<text text-anchor="middle" x="402" y="-230.3" font-family="Helvetica,Arial,sans-serif" font-size="14.00">internal/bytealg</text>
</a>
</g>
</g>
<!-- n1&#45;&gt;n10 -->
<g id="edge10" class="edge">
<title>n1&#45;&gt;n10</title>
<path fill="none" stroke="black" d="M170.32,-297.38C211.81,-286.2 290.06,-265.14 344.05,-250.6"/>
<polygon fill="black" stroke="black" points="344.64,-254.07 353.39,-248.09 342.82,-247.31 344.64,-254.07"/>
</g>
<!-- n11 -->
<g id="node12" class="node">
<title>n11</title>
<g id="a_node12"><a xlink:href="https://godoc.org/errors" xlink:title="Package errors implements functions to manipulate errors.">
<ellipse fill="none" stroke="black" cx="161" cy="-162" rx="33.6" ry="18"/>
<text text-anchor="middle" x="161" y="-158.3" font-family="Helvetica,Arial,sans-serif" font-size="14.00">errors</text>
</a>
</g>
</g>
<!-- n1&#45;&gt;n11 -->
<g id="edge14" class="edge">
<title>n1&#45;&gt;n11</title>
<path fill="none" stroke="black" d="M112.1,-299.25C86.68,-292.62 51.73,-278.95 35,-252 26.56,-238.41 26.15,-229.33 35,-216 53.2,-188.6 88.63,-175.33 117.29,-168.93"/>
<polygon fill="black" stroke="black" points="117.69,-172.42 126.81,-167.02 116.32,-165.56 117.69,-172.42"/>
</g>
<!-- n2&#45;&gt;n7 -->
<g id="edge16" class="edge">
<title>n2&#45;&gt;n7</title>
<path fill="none" stroke="black" d="M91.56,-222.16C96.52,-219.87 101.87,-217.65 107,-216 194.71,-187.87 302.33,-173.18 359.27,-166.88"/>
<polygon fill="black" stroke="black" points="359.55,-170.37 369.12,-165.82 358.8,-163.41 359.55,-170.37"/>
</g>
<!-- n2&#45;&gt;n11 -->
<g id="edge15" class="edge">
<title>n2&#45;&gt;n11</title>
<path fill="none" stroke="black" d="M87.93,-219.83C100.83,-209.8 118.86,-195.77 133.78,-184.17"/>
<polygon fill="black" stroke="black" points="135.66,-187.14 141.4,-178.24 131.36,-181.62 135.66,-187.14"/>
</g>
<!-- n3&#45;&gt;n4 -->
<g id="edge17" class="edge">
<title>n3&#45;&gt;n4</title>
<path fill="none" stroke="black" d="M249.45,-364.89C196.52,-351.11 111.24,-328.92 63.1,-316.39"/>
<polygon fill="black" stroke="black" points="64.01,-313.01 53.45,-313.88 62.24,-319.79 64.01,-313.01"/>
</g>
<!-- n3&#45;&gt;n5 -->
<g id="edge18" class="edge">
<title>n3&#45;&gt;n5</title>
<path fill="none" stroke="black" d="M341.23,-364.49C387.62,-351.65 459.28,-331.82 505.15,-319.13"/>
<polygon fill="black" stroke="black" points="506.07,-322.51 514.77,-316.47 504.2,-315.76 506.07,-322.51"/>
</g>
<!-- n3&#45;&gt;n6 -->
<g id="edge19" class="edge">
<title>n3&#45;&gt;n6</title>
<path fill="none" stroke="black" d="M297.98,-359.7C298.81,-352.41 299.8,-343.73 300.74,-335.54"/>
<polygon fill="black" stroke="black" points="304.22,-335.94 301.87,-325.61 297.26,-335.15 304.22,-335.94"/>
</g>
<!-- n3&#45;&gt;n8 -->
<g id="edge20" class="edge">
<title>n3&#45;&gt;n8</title>
<path fill="none" stroke="black" d="M281.73,-360.15C266.08,-341.91 239.99,-312.19 216,-288 205.97,-277.89 194.47,-267.21 184.38,-258.11"/>
<polygon fill="black" stroke="black" points="186.85,-255.62 177.06,-251.57 182.19,-260.85 186.85,-255.62"/>
</g>
<!-- n3&#45;&gt;n9 -->
<g id="edge21" class="edge">
<title>n3&#45;&gt;n9</title>
<path fill="none" stroke="black" d="M322.63,-361.08C353.01,-343.02 404.27,-312.85 449,-288 468.91,-276.94 491.29,-265.03 509.82,-255.31"/>
<polygon fill="black" stroke="black" points="511.38,-258.44 518.61,-250.71 508.13,-252.24 511.38,-258.44"/>
</g>
<!-- n12 -->
<g id="node13" class="node">
<title>n12</title>
<g id="a_node13"><a xlink:href="https://godoc.org/internal/reflectlite" xlink:title="Package reflectlite implements lightweight version of reflect, not using any package except for &quot;runtime&quot; and &quot;unsafe&quot;.">
<ellipse fill="none" stroke="black" cx="161" cy="-90" rx="77.19" ry="18"/>
<text text-anchor="middle" x="161" y="-86.3" font-family="Helvetica,Arial,sans-serif" font-size="14.00">internal/reflectlite</text>
</a>
</g>
</g>
<!-- n4&#45;&gt;n12 -->
<g id="edge22" class="edge">
<title>n4&#45;&gt;n12</title>
<path fill="none" stroke="black" d="M22.46,-287.77C18.5,-269.21 14.81,-239.21 25,-216 44.89,-170.7 90.2,-134.6 123.06,-113.07"/>
<polygon fill="black" stroke="black" points="124.57,-116.26 131.12,-107.94 120.81,-110.36 124.57,-116.26"/>
</g>
<!-- n5&#45;&gt;n9 -->
<g id="edge25" class="edge">
<title>n5&#45;&gt;n9</title>
<path fill="none" stroke="black" d="M549,-287.7C549,-280.41 549,-271.73 549,-263.54"/>
<polygon fill="black" stroke="black" points="552.5,-263.62 549,-253.62 545.5,-263.62 552.5,-263.62"/>
</g>
<!-- n5&#45;&gt;n10 -->
<g id="edge23" class="edge">
<title>n5&#45;&gt;n10</title>
<path fill="none" stroke="black" d="M522.72,-292.49C500.94,-282.12 469.58,-267.18 444.28,-255.13"/>
<polygon fill="black" stroke="black" points="446.11,-252.13 435.58,-250.99 443.1,-258.45 446.11,-252.13"/>
</g>
<!-- n5&#45;&gt;n11 -->
<g id="edge26" class="edge">
<title>n5&#45;&gt;n11</title>
<path fill="none" stroke="black" d="M574.93,-292.15C589.92,-283.16 607.47,-269.62 616,-252 622.97,-237.6 626.64,-227.95 616,-216 602.42,-200.74 317.51,-175.83 205.58,-166.6"/>
<polygon fill="black" stroke="black" points="206.13,-163.13 195.88,-165.8 205.56,-170.11 206.13,-163.13"/>
</g>
<!-- n13 -->
<g id="node14" class="node">
<title>n13</title>
<g id="a_node14"><a xlink:href="https://godoc.org/math" xlink:title="Package math provides basic constants and mathematical functions.">
<ellipse fill="none" stroke="black" cx="732" cy="-234" rx="30.59" ry="18"/>
<text text-anchor="middle" x="732" y="-230.3" font-family="Helvetica,Arial,sans-serif" font-size="14.00">math</text>
</a>
</g>
</g>
<!-- n5&#45;&gt;n13 -->
<g id="edge24" class="edge">
<title>n5&#45;&gt;n13</title>
<path fill="none" stroke="black" d="M578.4,-293.75C610.49,-281.48 661.88,-261.82 696.27,-248.67"/>
<polygon fill="black" stroke="black" points="697.29,-252.02 705.38,-245.18 694.79,-245.49 697.29,-252.02"/>
</g>
<!-- n14 -->
<g id="node15" class="node">
<title>n14</title>
<g id="a_node15"><a xlink:href="https://godoc.org/math/bits" xlink:title="Package bits implements bit counting and manipulation functions for the predeclared unsigned integer types.">
<ellipse fill="none" stroke="black" cx="763" cy="-162" rx="46.59" ry="18"/>
<text text-anchor="middle" x="763" y="-158.3" font-family="Helvetica,Arial,sans-serif" font-size="14.00">math/bits</text>
</a>
</g>
</g>
<!-- n5&#45;&gt;n14 -->
<g id="edge27" class="edge">
<title>n5&#45;&gt;n14</title>
<path fill="none" stroke="black" d="M587.08,-301.55C644.6,-295.46 749.36,-280.65 772,-252 785.46,-234.97 781.54,-210 775.2,-190.84"/>
<polygon fill="black" stroke="black" points="778.49,-189.63 771.72,-181.48 771.93,-192.07 778.49,-189.63"/>
</g>
<!-- n6&#45;&gt;n2 -->
<g id="edge28" class="edge">
<title>n6&#45;&gt;n2</title>
<path fill="none" stroke="black" d="M271.03,-298.03C231.44,-289.22 163.35,-272.7 107,-252 105.46,-251.43 103.89,-250.83 102.32,-250.19"/>
<polygon fill="black" stroke="black" points="104,-247.11 93.44,-246.31 101.2,-253.52 104,-247.11"/>
</g>
<!-- n6&#45;&gt;n7 -->
<g id="edge29" class="edge">
<title>n6&#45;&gt;n7</title>
<path fill="none" stroke="black" d="M304.02,-287.84C304.81,-268.79 308.49,-237.85 323,-216 333.66,-199.95 350.98,-187.32 366.39,-178.42"/>
<polygon fill="black" stroke="black" points="367.71,-181.68 374.83,-173.83 364.37,-175.53 367.71,-181.68"/>
</g>
<!-- n6&#45;&gt;n8 -->
<g id="edge33" class="edge">
<title>n6&#45;&gt;n8</title>
<path fill="none" stroke="black" d="M278.57,-292.81C255.59,-281.79 221.48,-265.43 195.39,-252.93"/>
<polygon fill="black" stroke="black" points="197.01,-249.82 186.48,-248.66 193.99,-256.14 197.01,-249.82"/>
</g>
<!-- n6&#45;&gt;n9 -->
<g id="edge34" class="edge">
<title>n6&#45;&gt;n9</title>
<path fill="none" stroke="black" d="M335.03,-296.13C375.53,-284.56 447.01,-264.14 496.13,-250.11"/>
<polygon fill="black" stroke="black" points="497.06,-253.48 505.72,-247.37 495.14,-246.75 497.06,-253.48"/>
</g>
<!-- n6&#45;&gt;n10 -->
<g id="edge32" class="edge">
<title>n6&#45;&gt;n10</title>
<path fill="none" stroke="black" d="M323.83,-290.83C337.08,-281.37 354.8,-268.72 370.01,-257.85"/>
<polygon fill="black" stroke="black" points="371.77,-260.89 377.87,-252.23 367.7,-255.2 371.77,-260.89"/>
</g>
<!-- n6&#45;&gt;n11 -->
<g id="edge31" class="edge">
<title>n6&#45;&gt;n11</title>
<path fill="none" stroke="black" d="M288.42,-289.53C263.39,-264.67 214.03,-215.66 184.64,-186.47"/>
<polygon fill="black" stroke="black" points="187.19,-184.08 177.63,-179.51 182.26,-189.04 187.19,-184.08"/>
</g>
<!-- n15 -->
<g id="node16" class="node">
<title>n15</title>
<g id="a_node16"><a xlink:href="https://godoc.org/unsafe" xlink:title="Package unsafe contains operations that step around the type safety of Go programs.">
<ellipse fill="none" stroke="black" cx="420" cy="-18" rx="37.09" ry="18"/>
<text text-anchor="middle" x="420" y="-14.3" font-family="Helvetica,Arial,sans-serif" font-size="14.00">unsafe</text>
</a>
</g>
</g>
<!-- n6&#45;&gt;n15 -->
<g id="edge30" class="edge">
<title>n6&#45;&gt;n15</title>
<path fill="none" stroke="black" d="M302.21,-287.72C300.79,-269.62 299.81,-240.49 305,-216 319.45,-147.83 327.89,-129.67 367,-72 374.44,-61.03 384.34,-50.41 393.58,-41.58"/>
<polygon fill="black" stroke="black" points="395.68,-44.4 400.67,-35.05 390.94,-39.25 395.68,-44.4"/>
</g>
<!-- n7&#45;&gt;n15 -->
<g id="edge38" class="edge">
<title>n7&#45;&gt;n15</title>
<path fill="none" stroke="black" d="M397.1,-143.76C395.55,-125.7 394.31,-96.59 399,-72 400.66,-63.31 403.72,-54.23 407,-46.09"/>
<polygon fill="black" stroke="black" points="410.14,-47.65 410.9,-37.08 403.71,-44.87 410.14,-47.65"/>
</g>
<!-- n16 -->
<g id="node17" class="node">
<title>n16</title>
<g id="a_node17"><a xlink:href="https://godoc.org/internal/race" xlink:title="Package race contains helper functions for manually instrumenting code for the race detector.">
<ellipse fill="none" stroke="black" cx="467" cy="-90" rx="59.29" ry="18"/>
<text text-anchor="middle" x="467" y="-86.3" font-family="Helvetica,Arial,sans-serif" font-size="14.00">internal/race</text>
</a>
</g>
</g>
<!-- n7&#45;&gt;n16 -->
<g id="edge35" class="edge">
<title>n7&#45;&gt;n16</title>
<path fill="none" stroke="black" d="M413.42,-146.15C421.95,-137.38 432.97,-126.03 442.8,-115.91"/>
<polygon fill="black" stroke="black" points="445.18,-118.49 449.64,-108.87 440.16,-113.61 445.18,-118.49"/>
</g>
<!-- n17 -->
<g id="node18" class="node">
<title>n17</title>
<g id="a_node18"><a xlink:href="https://godoc.org/runtime" xlink:title="runtime">
<ellipse fill="none" stroke="black" cx="263" cy="-18" rx="40.09" ry="18"/>
<text text-anchor="middle" x="263" y="-14.3" font-family="Helvetica,Arial,sans-serif" font-size="14.00">runtime</text>
</a>
</g>
</g>
<!-- n7&#45;&gt;n17 -->
<g id="edge36" class="edge">
<title>n7&#45;&gt;n17</title>
<path fill="none" stroke="black" d="M384.7,-146.07C361.24,-121.57 314.36,-72.62 286.12,-43.14"/>
<polygon fill="black" stroke="black" points="288.84,-40.92 279.39,-36.12 283.78,-45.76 288.84,-40.92"/>
</g>
<!-- n18 -->
<g id="node19" class="node">
<title>n18</title>
<g id="a_node19"><a xlink:href="https://godoc.org/sync/atomic" xlink:title="Package atomic provides low&#45;level atomic memory primitives useful for implementing synchronization algorithms.">
<ellipse fill="none" stroke="black" cx="602" cy="-90" rx="57.69" ry="18"/>
<text text-anchor="middle" x="602" y="-86.3" font-family="Helvetica,Arial,sans-serif" font-size="14.00">sync/atomic</text>
</a>
</g>
</g>
<!-- n7&#45;&gt;n18 -->
<g id="edge37" class="edge">
<title>n7&#45;&gt;n18</title>
<path fill="none" stroke="black" d="M423.89,-152.42C456.09,-141.31 512.88,-121.73 553.68,-107.66"/>
<polygon fill="black" stroke="black" points="554.73,-111 563.04,-104.43 552.45,-104.39 554.73,-111"/>
</g>
<!-- n10&#45;&gt;n15 -->
<g id="edge40" class="edge">
<title>n10&#45;&gt;n15</title>
<path fill="none" stroke="black" d="M384.26,-216.15C375.43,-206.51 365.66,-193.65 361,-180 355.83,-164.86 357.86,-159.69 361,-144 368.29,-107.56 388.35,-69.46 403.07,-45.05"/>
<polygon fill="black" stroke="black" points="405.91,-47.1 408.2,-36.75 399.96,-43.42 405.91,-47.1"/>
</g>
<!-- n19 -->
<g id="node20" class="node">
<title>n19</title>
<g id="a_node20"><a xlink:href="https://godoc.org/internal/cpu" xlink:title="Package cpu implements processor feature detection used by the Go standard library.">
<ellipse fill="none" stroke="black" cx="553" cy="-162" rx="55.79" ry="18"/>
<text text-anchor="middle" x="553" y="-158.3" font-family="Helvetica,Arial,sans-serif" font-size="14.00">internal/cpu</text>
</a>
</g>
</g>
<!-- n10&#45;&gt;n19 -->
<g id="edge39" class="edge">
<title>n10&#45;&gt;n19</title>
<path fill="none" stroke="black" d="M434.76,-217.81C457.36,-207.34 487.56,-193.34 511.79,-182.11"/>
<polygon fill="black" stroke="black" points="513.13,-185.34 520.73,-177.96 510.18,-178.99 513.13,-185.34"/>
</g>
<!-- n11&#45;&gt;n12 -->
<g id="edge41" class="edge">
<title>n11&#45;&gt;n12</title>
<path fill="none" stroke="black" d="M161,-143.7C161,-136.41 161,-127.73 161,-119.54"/>
<polygon fill="black" stroke="black" points="164.5,-119.62 161,-109.62 157.5,-119.62 164.5,-119.62"/>
</g>
<!-- n12&#45;&gt;n15 -->
<g id="edge43" class="edge">
<title>n12&#45;&gt;n15</title>
<path fill="none" stroke="black" d="M210.02,-75.75C258.29,-62.71 331.26,-42.98 377.24,-30.56"/>
<polygon fill="black" stroke="black" points="378.11,-33.95 386.85,-27.96 376.29,-27.19 378.11,-33.95"/>
</g>
<!-- n12&#45;&gt;n17 -->
<g id="edge42" class="edge">
<title>n12&#45;&gt;n17</title>
<path fill="none" stroke="black" d="M184.91,-72.59C199.02,-62.91 217.02,-50.56 232.18,-40.15"/>
<polygon fill="black" stroke="black" points="234.15,-43.04 240.41,-34.5 230.19,-37.27 234.15,-43.04"/>
</g>
<!-- n13&#45;&gt;n14 -->
<g id="edge46" class="edge">
<title>n13&#45;&gt;n14</title>
<path fill="none" stroke="black" d="M739.5,-216.05C742.93,-208.32 747.08,-198.96 750.92,-190.27"/>
<polygon fill="black" stroke="black" points="754.1,-191.73 754.95,-181.17 747.7,-188.9 754.1,-191.73"/>
</g>
<!-- n13&#45;&gt;n15 -->
<g id="edge44" class="edge">
<title>n13&#45;&gt;n15</title>
<path fill="none" stroke="black" d="M723.68,-216.49C718.59,-206.13 712.1,-192.42 707,-180 687.68,-132.93 707.22,-105.59 669,-72 639.55,-46.11 531.28,-30.65 467.62,-23.59"/>
<polygon fill="black" stroke="black" points="468.1,-20.13 457.78,-22.54 467.35,-27.09 468.1,-20.13"/>
</g>
<!-- n13&#45;&gt;n19 -->
<g id="edge45" class="edge">
<title>n13&#45;&gt;n19</title>
<path fill="none" stroke="black" d="M707.11,-223.27C678.9,-212.24 632.36,-194.04 597.8,-180.52"/>
<polygon fill="black" stroke="black" points="599.48,-177.42 588.9,-177.04 596.93,-183.94 599.48,-177.42"/>
</g>
<!-- n14&#45;&gt;n15 -->
<g id="edge47" class="edge">
<title>n14&#45;&gt;n15</title>
<path fill="none" stroke="black" d="M756.17,-143.87C747.03,-123.33 728.83,-89.5 702,-72 664,-47.22 537.36,-30.88 467.42,-23.5"/>
<polygon fill="black" stroke="black" points="468.1,-20.06 457.8,-22.51 467.38,-27.02 468.1,-20.06"/>
</g>
<!-- n16&#45;&gt;n15 -->
<g id="edge48" class="edge">
<title>n16&#45;&gt;n15</title>
<path fill="none" stroke="black" d="M455.62,-72.05C450.12,-63.85 443.39,-53.83 437.27,-44.71"/>
<polygon fill="black" stroke="black" points="440.27,-42.91 431.79,-36.56 434.46,-46.82 440.27,-42.91"/>
</g>
<!-- n18&#45;&gt;n15 -->
<g id="edge49" class="edge">
<title>n18&#45;&gt;n15</title>
<path fill="none" stroke="black" d="M566.91,-75.5C536.05,-63.63 491.18,-46.38 459.16,-34.06"/>
<polygon fill="black" stroke="black" points="460.42,-30.79 449.83,-30.47 457.9,-37.33 460.42,-30.79"/>
</g>
</g>
</svg>
